<svg width="360" height="359" viewBox="0 0 360 359" fill="none" xmlns="http://www.w3.org/2000/svg">
<g clip-path="url(#clip0_519_704)">
<path d="M455 307.456H-15V307.691H455V307.456Z" fill="#EBEBEB"/>
<path d="M65.4452 316.405H34.3124V316.64H65.4452V316.405Z" fill="#EBEBEB"/>
<path d="M196.5 316.527H145.872V316.762H196.5V316.527Z" fill="#EBEBEB"/>
<path d="M102.462 321.255H84.4238V321.49H102.462V321.255Z" fill="#EBEBEB"/>
<path d="M377.788 321.142H349.316V321.377H377.788V321.142Z" fill="#EBEBEB"/>
<path d="M333.637 319.591H293.63V319.826H333.637V319.591Z" fill="#EBEBEB"/>
<path d="M207.78 265.532H26.2755C24.8536 265.529 23.4908 264.963 22.4862 263.957C21.4817 262.95 20.9175 261.586 20.9175 260.165V5.02035C20.9299 3.60662 21.4995 2.25485 22.5027 1.25868C23.506 0.262502 24.8617 -0.297627 26.2755 -0.300049H207.78C209.204 -0.300049 210.569 0.265444 211.575 1.27203C212.582 2.27861 213.147 3.64383 213.147 5.06735V260.165C213.147 261.588 212.582 262.953 211.575 263.96C210.569 264.966 209.204 265.532 207.78 265.532ZM26.2755 -0.112048C24.9159 -0.109558 23.6129 0.432272 22.6524 1.39451C21.6919 2.35676 21.1525 3.66078 21.1525 5.02035V260.165C21.1525 261.524 21.6919 262.828 22.6524 263.79C23.6129 264.753 24.9159 265.294 26.2755 265.297H207.78C209.141 265.294 210.445 264.753 211.406 263.791C212.368 262.829 212.91 261.525 212.912 260.165V5.02035C212.91 3.65992 212.368 2.35591 211.406 1.39394C210.445 0.431967 209.141 -0.109563 207.78 -0.112048H26.2755Z" fill="#EBEBEB"/>
<path d="M411.111 265.532H229.597C228.175 265.529 226.811 264.963 225.805 263.957C224.799 262.951 224.232 261.587 224.23 260.165V5.02035C224.245 3.60576 224.817 2.254 225.821 1.25809C226.826 0.262173 228.183 -0.297653 229.597 -0.300049H411.111C412.524 -0.295157 413.877 0.266065 414.878 1.26198C415.879 2.25789 416.448 3.60824 416.46 5.02035V260.165C416.46 261.585 415.897 262.947 414.895 263.953C413.892 264.959 412.532 265.527 411.111 265.532ZM229.597 -0.112048C228.237 -0.109563 226.933 0.431967 225.971 1.39394C225.009 2.35591 224.467 3.65992 224.465 5.02035V260.165C224.467 261.525 225.009 262.829 225.971 263.791C226.933 264.753 228.237 265.294 229.597 265.297H411.111C412.472 265.294 413.776 264.753 414.738 263.791C415.7 262.829 416.241 261.525 416.244 260.165V5.02035C416.241 3.65992 415.7 2.35591 414.738 1.39394C413.776 0.431967 412.472 -0.109563 411.111 -0.112048H229.597Z" fill="#EBEBEB"/>
<path d="M379.687 33.5587H270.553V163.862H379.687V33.5587Z" fill="#E6E6E6"/>
<path d="M382.413 33.5587H273.279V163.862H382.413V33.5587Z" fill="#F5F5F5"/>
<path d="M377.525 158.363V39.0485L278.177 39.0485V158.363H377.525Z" fill="white"/>
<path d="M380.383 130.097H275.3V137.476H380.383V130.097Z" fill="#F5F5F5"/>
<path d="M387.743 24.4689H265.223C265.024 24.4689 264.833 24.5481 264.692 24.6891C264.551 24.8302 264.471 25.0214 264.471 25.2209C264.471 25.4203 264.551 25.6116 264.692 25.7526C264.833 25.8936 265.024 25.9729 265.223 25.9729H387.743C387.942 25.9729 388.134 25.8936 388.275 25.7526C388.416 25.6116 388.495 25.4203 388.495 25.2209C388.495 25.0214 388.416 24.8302 388.275 24.6891C388.134 24.5481 387.942 24.4689 387.743 24.4689Z" fill="#E6E6E6"/>
<path d="M271.568 29.4321C271.299 29.4321 271.041 29.3252 270.851 29.1348C270.66 28.9444 270.553 28.6862 270.553 28.4169V26.2361C270.556 25.9677 270.663 25.7109 270.853 25.521C271.043 25.3311 271.3 25.2234 271.568 25.2209C271.838 25.2209 272.096 25.3279 272.286 25.5183C272.477 25.7087 272.584 25.9669 272.584 26.2361V28.4169C272.584 28.6862 272.477 28.9444 272.286 29.1348C272.096 29.3252 271.838 29.4321 271.568 29.4321Z" fill="#E6E6E6"/>
<path opacity="0.5" d="M387.499 25.2209H275.3V79.9477H387.499V25.2209Z" fill="#E0E0E0"/>
<path d="M283.676 28.9811C285.752 28.9811 287.436 27.2977 287.436 25.2211C287.436 23.1445 285.752 21.4611 283.676 21.4611C281.599 21.4611 279.916 23.1445 279.916 25.2211C279.916 27.2977 281.599 28.9811 283.676 28.9811Z" fill="#E6E6E6"/>
<path d="M69.3274 177.858H29.5184L33.0434 131.262H65.8024L69.3274 177.858Z" fill="#EBEBEB"/>
<path d="M60.5948 177.858H53.7516L52.2946 131.262H58.6114L60.5948 177.858Z" fill="#F5F5F5"/>
<path d="M51.4204 177.858H47.4348V307.456H51.4204V177.858Z" fill="#F0F0F0"/>
<path d="M50.9316 196.949H47.9236C46.4596 196.949 45.2728 198.136 45.2728 199.6V209.386C45.2728 210.85 46.4596 212.036 47.9236 212.036H50.9316C52.3956 212.036 53.5824 210.85 53.5824 209.386V199.6C53.5824 198.136 52.3956 196.949 50.9316 196.949Z" fill="#F0F0F0"/>
<path d="M50.9316 221.126H47.9236C46.4596 221.126 45.2728 222.313 45.2728 223.777V233.563C45.2728 235.027 46.4596 236.213 47.9236 236.213H50.9316C52.3956 236.213 53.5824 235.027 53.5824 233.563V223.777C53.5824 222.313 52.3956 221.126 50.9316 221.126Z" fill="#F0F0F0"/>
<path d="M55.7256 307.456H43.1202C43.1202 306.743 43.4034 306.059 43.9076 305.555C44.4118 305.051 45.0956 304.768 45.8086 304.768H53.0372C53.7502 304.768 54.434 305.051 54.9382 305.555C55.4423 306.059 55.7256 306.743 55.7256 307.456Z" fill="#F0F0F0"/>
<path d="M51.4204 177.858H47.4348V180.293H51.4204V177.858Z" fill="#E0E0E0"/>
<path d="M75.5314 28.8777H73.6326V139.196H75.5314V28.8777Z" fill="#E0E0E0"/>
<path d="M368.069 180.594H326.192V307.447H368.069V180.594Z" fill="#E6E6E6"/>
<path d="M347.624 307.456H368.069V289.944H326.192L347.624 307.456Z" fill="#FAFAFA"/>
<path d="M201.059 180.594H159.182V307.447H201.059V180.594Z" fill="#E6E6E6"/>
<path d="M368.059 180.594H183.218V301.421H368.059V180.594Z" fill="#FAFAFA"/>
<path d="M203.663 307.456H183.227V289.944H225.104L203.663 307.456Z" fill="#FAFAFA"/>
<path d="M352.211 225.62H199.085V255.859H352.211V225.62Z" fill="#F0F0F0"/>
<path d="M352.211 262.327H199.085V292.566H352.211V262.327Z" fill="#F0F0F0"/>
<path d="M315.739 228.853H235.548C233.997 228.853 232.51 228.237 231.413 227.141C230.317 226.044 229.701 224.557 229.701 223.006H321.586C321.587 223.775 321.437 224.535 321.143 225.245C320.85 225.955 320.419 226.6 319.876 227.144C319.333 227.687 318.688 228.117 317.978 228.411C317.268 228.704 316.507 228.855 315.739 228.853Z" fill="#FAFAFA"/>
<path d="M352.211 188.922H199.085V219.162H352.211V188.922Z" fill="#F0F0F0"/>
<path d="M315.739 192.156H235.548C233.996 192.153 232.509 191.535 231.413 190.437C230.316 189.339 229.701 187.851 229.701 186.299H321.586C321.587 187.068 321.437 187.829 321.143 188.54C320.85 189.25 320.42 189.896 319.877 190.44C319.334 190.984 318.689 191.415 317.979 191.71C317.269 192.004 316.508 192.156 315.739 192.156Z" fill="#FAFAFA"/>
<path d="M315.739 265.56H235.548C233.996 265.558 232.509 264.94 231.413 263.842C230.316 262.744 229.701 261.256 229.701 259.704H321.586C321.587 260.473 321.437 261.234 321.143 261.944C320.85 262.655 320.42 263.301 319.877 263.844C319.334 264.388 318.689 264.82 317.979 265.114C317.269 265.409 316.508 265.56 315.739 265.56Z" fill="#FAFAFA"/>
<path d="M56.0169 152.441H196.303C192.139 152.389 188.147 150.773 185.12 147.913C182.093 145.054 180.253 141.16 179.965 137.006L177.484 95.1947H37.2075L39.6797 137.006C39.9674 141.16 41.8075 145.054 44.8343 147.913C47.8612 150.773 51.8532 152.389 56.0169 152.441Z" fill="#081345"/>
<path opacity="0.6" d="M56.0169 152.441H196.303C192.139 152.389 188.147 150.773 185.12 147.913C182.093 145.054 180.253 141.16 179.965 137.006L177.484 95.1947H37.2075L39.6797 137.006C39.9674 141.16 41.8075 145.054 44.8343 147.913C47.8612 150.773 51.8532 152.389 56.0169 152.441Z" fill="white"/>
<path d="M206.699 67.3801H81.82C79.8292 67.3566 77.8552 67.7467 76.0229 68.5258C74.1907 69.3048 72.5402 70.4557 71.1759 71.9057C69.8116 73.3558 68.7632 75.0733 68.0972 76.9495C67.4311 78.8257 67.1618 80.8198 67.3064 82.8055L70.54 137.015C70.6874 139.002 70.4202 140.997 69.7551 142.874C69.0901 144.752 68.0419 146.471 66.677 147.921C65.3121 149.372 63.6604 150.523 61.8269 151.301C59.9933 152.079 58.018 152.467 56.0264 152.441H196.303C198.294 152.467 200.27 152.079 202.103 151.301C203.937 150.523 205.588 149.372 206.953 147.921C208.318 146.471 209.366 144.752 210.031 142.874C210.696 140.997 210.964 139.002 210.816 137.015L211.164 142.881L207.611 82.8431C207.458 80.8537 207.721 78.8543 208.384 76.9723C209.046 75.0904 210.094 73.367 211.459 71.9123C212.824 70.4575 214.478 69.3031 216.314 68.5228C218.151 67.7425 220.129 67.3533 222.124 67.3801H206.699Z" fill="#081345"/>
<path d="M222.124 67.38H81.8199C85.9835 67.4269 89.9766 69.0403 93.0042 71.8988C96.0317 74.7574 97.8715 78.6514 98.1571 82.8054L110.236 286.494H250.512L238.462 82.843C238.181 78.6839 236.344 74.7831 233.316 71.9176C230.288 69.052 226.293 67.432 222.124 67.38Z" fill="#081345"/>
<path opacity="0.8" d="M249.982 285.994H110.707L98.6563 82.7758L98.6563 82.7758L98.656 82.7711C98.3617 78.4917 96.4663 74.4802 93.3474 71.5353C91.6208 69.905 89.5892 68.6678 87.3918 67.88H222.121C226.163 67.9312 230.037 69.5023 232.972 72.2807C235.908 75.0595 237.69 78.842 237.963 82.8751C237.963 82.8756 237.963 82.8762 237.963 82.8767L249.982 285.994Z" fill="white" stroke="black"/>
<path d="M145.42 125.359H119.42L117.85 99.3401H143.86L145.42 125.359ZM122.24 122.295H142.14L141.04 102.395H121.103L122.24 122.295Z" fill="white"/>
<path d="M149.049 186.563H123.02L121.479 160.534H147.507L149.049 186.563ZM125.897 183.498H145.796L144.621 163.599H124.722L125.897 183.498Z" fill="white"/>
<path d="M152.668 247.766H126.639L125.06 221.737H151.089L152.668 247.766ZM129.525 244.702H149.425L148.24 224.802H128.341L129.525 244.702Z" fill="white"/>
<path d="M217.97 99.3306H158.129V102.395H217.97V99.3306Z" fill="white"/>
<path d="M211.615 110.817H158.806V113.882H211.615V110.817Z" fill="white"/>
<path d="M219.323 122.295H159.483V125.359H219.323V122.295Z" fill="white"/>
<path d="M221.589 160.534H161.748V163.599H221.589V160.534Z" fill="white"/>
<path d="M197.553 172.021H162.425V175.085H197.553V172.021Z" fill="white"/>
<path d="M181.244 183.498H163.111V186.563H181.244V183.498Z" fill="white"/>
<path d="M222.952 183.498H193.031V186.563H222.952V183.498Z" fill="white"/>
<path d="M225.208 221.737H165.367V224.802H225.208V221.737Z" fill="white"/>
<path d="M225.894 233.224H166.053V236.289H225.894V233.224Z" fill="white"/>
<path d="M199.828 244.702H166.73V247.766H199.828V244.702Z" fill="white"/>
<path d="M134.112 119.23C133.462 119.231 132.836 118.982 132.364 118.535L126 112.5C125.757 112.27 125.561 111.994 125.425 111.688C125.288 111.382 125.213 111.053 125.204 110.718C125.186 110.042 125.436 109.386 125.901 108.895C126.366 108.404 127.007 108.118 127.683 108.099C128.359 108.081 129.015 108.332 129.506 108.796L134.037 113.073L144.236 102.235C144.7 101.743 145.34 101.455 146.016 101.435C146.692 101.414 147.348 101.663 147.841 102.127C148.333 102.591 148.621 103.231 148.642 103.907C148.662 104.583 148.413 105.24 147.949 105.732L136.002 118.431C135.773 118.677 135.496 118.875 135.19 119.012C134.883 119.149 134.552 119.224 134.216 119.23H134.112Z" fill="#081345"/>
<path d="M137.741 180.434C137.09 180.437 136.463 180.187 135.992 179.738L129.6 173.703C129.348 173.476 129.145 173.201 129.001 172.893C128.857 172.586 128.776 172.253 128.762 171.914C128.749 171.575 128.803 171.237 128.922 170.919C129.041 170.602 129.222 170.311 129.455 170.064C129.688 169.817 129.968 169.62 130.278 169.483C130.589 169.346 130.923 169.272 131.263 169.266C131.602 169.26 131.939 169.322 132.254 169.448C132.569 169.574 132.855 169.762 133.097 170L137.637 174.277L147.827 163.439C148.29 162.946 148.931 162.658 149.607 162.638C150.283 162.618 150.939 162.867 151.432 163.331C151.924 163.794 152.212 164.435 152.232 165.111C152.253 165.787 152.003 166.443 151.54 166.935L139.592 179.635C139.365 179.88 139.09 180.077 138.785 180.214C138.48 180.352 138.15 180.426 137.816 180.434H137.741Z" fill="#081345"/>
<path d="M141.359 241.647C140.708 241.646 140.081 241.393 139.611 240.942L133.219 234.907C132.967 234.679 132.763 234.404 132.62 234.097C132.476 233.79 132.395 233.457 132.381 233.118C132.368 232.779 132.422 232.44 132.541 232.123C132.66 231.805 132.841 231.514 133.074 231.267C133.307 231.021 133.587 230.823 133.897 230.686C134.208 230.549 134.542 230.475 134.882 230.469C135.221 230.463 135.558 230.525 135.873 230.651C136.188 230.777 136.474 230.965 136.716 231.203L141.256 235.48L151.455 224.642C151.933 224.232 152.545 224.013 153.175 224.028C153.804 224.042 154.406 224.29 154.864 224.722C155.321 225.154 155.603 225.74 155.654 226.368C155.705 226.995 155.522 227.62 155.14 228.12L143.192 240.819C142.962 241.064 142.686 241.261 142.38 241.398C142.073 241.535 141.742 241.61 141.407 241.618L141.359 241.647Z" fill="#081345"/>
<path d="M276.172 97.5762L257.915 102.064L312.397 323.707L330.654 319.22L276.172 97.5762Z" fill="#081345"/>
<path opacity="0.2" d="M276.162 97.5744L270.603 98.9409L325.085 320.584L330.644 319.218L276.162 97.5744Z" fill="black"/>
<path d="M329.274 322.517L315.126 325.995C313.991 326.274 313.298 327.419 313.577 328.553L315.946 338.193C316.225 339.327 317.37 340.021 318.505 339.742L332.654 336.264C333.788 335.985 334.481 334.84 334.203 333.705L331.833 324.066C331.554 322.932 330.409 322.238 329.274 322.517Z" fill="#081345"/>
<path opacity="0.7" d="M329.274 322.517L315.126 325.995C313.991 326.274 313.298 327.419 313.577 328.553L315.946 338.193C316.225 339.327 317.37 340.021 318.505 339.742L332.654 336.264C333.788 335.985 334.481 334.84 334.203 333.705L331.833 324.066C331.554 322.932 330.409 322.238 329.274 322.517Z" fill="white"/>
<path d="M329.384 316.031L312.031 320.296C310.982 320.554 310.341 321.613 310.599 322.661L312.152 328.978C312.41 330.027 313.469 330.668 314.517 330.41L331.87 326.145C332.919 325.887 333.56 324.828 333.302 323.779L331.749 317.462C331.492 316.414 330.433 315.773 329.384 316.031Z" fill="#E0E0E0"/>
<path d="M276.174 97.5541L257.92 102.047L260.063 86.7723L261.435 76.9775L267.197 85.0145L276.174 97.5541Z" fill="#E0E0E0"/>
<path d="M267.197 85.0145L260.063 86.7723L261.435 76.9775L267.197 85.0145Z" fill="#081345"/>
<path d="M323.325 83.0593C323.231 88.6993 322.14 99.3307 325.111 102.799C318.283 105.045 312.162 109.037 307.354 114.38C303.284 107.725 308.595 104.144 308.595 104.144C314.451 102.264 314.094 97.8549 312.863 93.8035L323.325 83.0593Z" fill="#FFB573"/>
<path d="M305.625 108.637C307.176 102.874 302.805 102.057 310.09 99.2366C315.786 96.9806 326.549 96.661 329.078 98.4752C330.478 99.4904 328.551 103.044 328.551 103.044L305.625 108.637Z" fill="#263238"/>
<path d="M337.199 107.396C337.622 108.073 337.923 108.59 338.261 109.182C338.6 109.774 338.882 110.319 339.201 110.893C339.803 112.039 340.367 113.186 340.912 114.352C342.003 116.674 342.952 119.052 343.826 121.458C345.582 126.332 346.842 131.371 347.586 136.498L347.831 138.435C347.878 138.707 347.915 139.196 347.943 139.619C347.972 140.042 347.943 140.427 347.943 140.803C347.922 142.19 347.818 143.574 347.633 144.949C347.304 147.543 346.806 149.997 346.261 152.469C345.151 157.291 343.748 162.04 342.059 166.691C341.835 167.322 341.388 167.849 340.804 168.174C340.219 168.5 339.535 168.601 338.881 168.46C338.227 168.318 337.647 167.943 337.249 167.405C336.851 166.866 336.663 166.202 336.72 165.535C337.096 160.76 337.538 155.947 337.885 151.247C338.055 148.897 338.186 146.547 338.224 144.328C338.224 143.229 338.224 142.138 338.12 141.226L338.036 140.597L337.914 139.986L337.566 138.35C336.562 133.945 335.21 129.626 333.524 125.434C332.678 123.329 331.766 121.242 330.807 119.183C330.331 118.149 329.833 117.134 329.313 116.138L328.523 114.653L327.78 113.29L327.649 113.045C326.964 111.783 326.798 110.304 327.187 108.921C327.575 107.538 328.487 106.362 329.729 105.641C330.971 104.92 332.445 104.712 333.838 105.061C335.232 105.41 336.434 106.288 337.19 107.509L337.199 107.396Z" fill="#FFB573"/>
<path d="M334.68 168.59L335.46 167.292L337.66 163.589L341.692 165.873C342.529 169.633 339.972 172.961 339.972 172.961L338.835 173.901C338.447 174.238 337.946 174.415 337.433 174.396C336.919 174.376 336.433 174.163 336.071 173.797L335.197 172.989C334.647 172.41 334.299 171.668 334.206 170.875C334.113 170.082 334.279 169.28 334.68 168.59Z" fill="#FFB573"/>
<path d="M281.1 166.672L280.451 164.322C280.299 163.769 279.936 163.298 279.441 163.01C278.945 162.722 278.356 162.639 277.801 162.781L274.981 163.504L273.242 163.937C272.327 164.175 271.515 164.705 270.928 165.446C270.341 166.187 270.012 167.1 269.989 168.045V169.445C269.985 170.055 270.213 170.644 270.627 171.093C271.04 171.541 271.609 171.816 272.217 171.861L273.956 172.03C276.565 171.615 278.957 170.329 280.743 168.383C280.936 168.148 281.07 167.87 281.132 167.572C281.194 167.274 281.183 166.965 281.1 166.672Z" fill="#FFB573"/>
<path d="M332.499 103.26C337.434 105.45 341.956 110.667 345.659 120.321C344.475 124.297 332.245 130.811 332.245 130.811C332.245 130.811 316.989 98.4659 332.499 103.26Z" fill="#081345"/>
<path d="M291.675 115.621C291.722 119.202 285.791 127.502 292.615 132.315C293.207 139.563 294.006 146.697 295.557 158.588H332.057C328.589 145.428 331.587 136.592 337.152 113.468C337.47 112.226 337.515 110.929 337.286 109.667C337.056 108.405 336.556 107.208 335.82 106.157C335.085 105.107 334.131 104.227 333.024 103.58C331.917 102.932 330.683 102.531 329.407 102.404C327.95 102.263 326.408 102.141 324.838 102.057C319.318 101.661 313.777 101.661 308.257 102.057C306.461 102.216 304.609 102.442 302.833 102.686C299.728 103.139 296.89 104.696 294.841 107.072C292.791 109.448 291.667 112.483 291.675 115.621Z" fill="#081345"/>
<path d="M303.763 112.133C303.848 114.822 303.763 117.397 303.763 120.029C303.763 122.661 303.594 125.265 303.425 127.897C303.134 133.233 302.506 138.545 301.545 143.802C301.432 144.469 301.254 145.165 301.094 145.842C300.934 146.519 300.793 147.195 300.577 147.91L300.276 148.953L300.116 149.48C300.056 149.716 299.98 149.948 299.891 150.175C299.497 151.188 298.959 152.138 298.293 152.995C297.376 154.185 296.373 155.306 295.294 156.351C294.307 157.338 293.301 158.231 292.286 159.171C288.288 162.615 284.04 165.757 279.577 168.571C279.017 168.923 278.349 169.062 277.694 168.963C277.04 168.865 276.443 168.534 276.011 168.032C275.58 167.53 275.343 166.89 275.344 166.228C275.344 165.566 275.582 164.927 276.015 164.426C279.37 160.6 282.83 156.802 286.054 153.042C286.843 152.102 287.614 151.162 288.347 150.222C289.036 149.387 289.664 148.505 290.227 147.581C290.453 147.233 290.594 146.81 290.472 147.045C290.35 147.28 290.472 146.923 290.472 146.819L290.556 146.406L290.735 145.588C290.867 145.062 290.942 144.469 291.036 143.896C291.13 143.323 291.243 142.749 291.299 142.148C291.938 137.401 292.239 132.4 292.418 127.399C292.596 122.398 292.709 117.303 292.737 112.359C292.729 111.634 292.864 110.915 293.134 110.243C293.404 109.57 293.803 108.958 294.31 108.439C295.333 107.393 296.73 106.796 298.194 106.78C299.657 106.764 301.067 107.33 302.113 108.353C303.16 109.376 303.757 110.773 303.773 112.237L303.763 112.133Z" fill="#FFB573"/>
<path d="M299.74 103.523C295.238 105.76 290.773 110.103 288.921 120.048C290.096 123.987 306.189 131.573 306.189 131.573C306.189 131.573 315.147 97.7702 299.74 103.523Z" fill="#081345"/>
<path d="M300.727 79.4684C300.849 80.1734 300.567 80.8314 300.097 80.916C299.627 81.0006 299.157 80.5118 299.035 79.7974C298.913 79.083 299.204 78.4344 299.665 78.3498C300.126 78.2652 300.614 78.754 300.727 79.4684Z" fill="#263238"/>
<path d="M299.9 78.3405L298.105 78.1901C298.105 78.1901 299.186 79.3463 299.9 78.3405Z" fill="#263238"/>
<path d="M300.558 80.2581C300.189 82.0106 299.585 83.7054 298.763 85.2965C299.175 85.4888 299.624 85.5885 300.079 85.5885C300.533 85.5885 300.983 85.4888 301.395 85.2965L300.558 80.2581Z" fill="#ED893E"/>
<path d="M298.866 74.618C298.758 74.6171 298.655 74.577 298.575 74.5052C298.535 74.4659 298.503 74.419 298.482 74.3674C298.46 74.3157 298.449 74.2603 298.449 74.2044C298.449 74.1484 298.46 74.093 298.482 74.0414C298.503 73.9898 298.535 73.9429 298.575 73.9036C299.034 73.3979 299.606 73.0081 300.245 72.7663C300.884 72.5245 301.571 72.4375 302.25 72.5124C302.304 72.5225 302.355 72.5432 302.401 72.5734C302.447 72.6035 302.486 72.6425 302.517 72.688C302.547 72.7334 302.569 72.7846 302.579 72.8383C302.59 72.8921 302.59 72.9475 302.579 73.0012C302.556 73.1138 302.49 73.2131 302.396 73.278C302.301 73.3429 302.185 73.3684 302.071 73.349C301.534 73.3001 300.992 73.3775 300.489 73.575C299.987 73.7724 299.537 74.0845 299.176 74.4864C299.094 74.5695 298.983 74.6168 298.866 74.618Z" fill="#263238"/>
<path d="M323.992 72.4655C324.932 81.3015 325.496 85.0239 321.896 90.3255C316.472 98.3625 305.568 97.8455 302.062 89.5453C298.904 82.0253 297.917 68.8653 305.775 63.7329C307.465 62.58 309.429 61.8916 311.469 61.7368C313.51 61.5819 315.555 61.9659 317.4 62.8503C319.245 63.7348 320.825 65.0886 321.982 66.7761C323.139 68.4637 323.832 70.4256 323.992 72.4655Z" fill="#FFB573"/>
<path d="M307.918 78.9233C302.278 77.9269 300.915 71.4503 303.002 68.6303C293.499 69.0533 287.097 58.4219 297.362 52.3589C307.627 46.2959 316.688 55.6865 315.955 59.2303C328.598 58.0835 336.005 68.4893 329.115 76.2255C338.205 77.7013 351.816 87.9473 341.824 98.7103C355.332 100.694 356.798 142.994 320.025 135.474C281.26 127.54 314.94 93.8035 314.94 93.8035C314.94 93.8035 305.117 91.0399 307.918 78.9233Z" fill="#263238"/>
<path d="M343.93 101.464L343.131 100.976C346.543 95.4296 347.107 90.3818 344.804 85.9356C341.843 80.2956 334.661 76.968 329.087 76.6484L329.143 75.7084C334.971 76.0374 342.52 79.4684 345.641 85.4938C348.066 90.1938 347.474 95.7022 343.93 101.464Z" fill="#263238"/>
<path d="M333.242 77.1748C336.485 76.639 334.953 71.3468 332.565 69.9462C330.177 68.5456 318.738 70.8204 319.997 74.4676C321.257 78.1148 328.89 77.8986 333.242 77.1748Z" fill="white"/>
<path d="M333.825 75.84C337.058 75.2196 335.761 70.9332 333.336 69.589C330.911 68.2448 320.918 69.2412 322.281 72.8414C323.644 76.4416 329.501 76.6954 333.825 75.84Z" fill="#081345"/>
<path d="M299.947 69.7018C297.781 69.6727 295.687 68.9217 293.997 67.568C291.299 65.4718 289.814 62.3322 290.237 59.5686C290.491 57.8108 291.59 55.395 295.426 53.8628L295.773 54.737C293.066 55.818 291.478 57.557 291.167 59.7002C290.829 62.1442 292.173 64.936 294.608 66.8254C295.737 67.7671 297.097 68.3907 298.548 68.6319C299.999 68.8732 301.488 68.7233 302.861 68.1978L303.218 69.072C302.18 69.4967 301.068 69.7107 299.947 69.7018Z" fill="#263238"/>
<path d="M310.146 79.9571C309.723 82.2695 309.591 83.2565 308.388 84.3375C308.046 84.7199 307.597 84.9903 307.099 85.113C306.6 85.2357 306.077 85.2052 305.596 85.0254C305.116 84.8456 304.701 84.5249 304.406 84.1053C304.11 83.6857 303.949 83.1867 303.942 82.6737C303.754 80.5493 304.478 77.1277 306.63 76.4133C308.783 75.6989 310.569 77.6541 310.146 79.9571Z" fill="#FFB573"/>
<path d="M304.957 87.3173L304.196 85.9543C304.164 85.8986 304.147 85.8354 304.147 85.771C304.147 85.7067 304.164 85.6435 304.196 85.5877L304.957 84.2341C304.99 84.1754 305.037 84.1264 305.095 84.0923C305.153 84.0582 305.219 84.0402 305.286 84.0402C305.353 84.0402 305.419 84.0582 305.477 84.0923C305.535 84.1264 305.583 84.1754 305.615 84.2341L306.377 85.5877C306.409 85.6435 306.426 85.7067 306.426 85.771C306.426 85.8354 306.409 85.8986 306.377 85.9543L305.615 87.3173C305.583 87.3761 305.535 87.4251 305.477 87.4592C305.419 87.4933 305.353 87.5113 305.286 87.5113C305.219 87.5113 305.153 87.4933 305.095 87.4592C305.037 87.4251 304.99 87.3761 304.957 87.3173Z" fill="white"/>
<path d="M295.576 158.56C295.576 158.56 294.288 205.692 292.568 236.693C290.744 265.147 288.404 331.689 288.404 331.689L295.595 332.065C295.595 332.065 311.5 276.069 310.832 242.239C329.501 194.919 322.789 159.979 322.789 159.979L295.576 158.56Z" fill="#FFB573"/>
<path d="M288.94 328.7C288.78 328.585 288.587 328.522 288.39 328.522C288.192 328.522 288 328.585 287.84 328.7C284.389 331.262 280.209 332.652 275.911 332.667C271.136 332.874 272.311 335.487 279.145 336.361C287.182 337.357 288.902 339.012 291.496 339.66C294.091 340.309 296.149 338.335 296.102 332.883C296.098 332.697 296.039 332.516 295.932 332.364C295.825 332.212 295.675 332.095 295.501 332.028C293.191 331.18 290.988 330.063 288.94 328.7Z" fill="#263238"/>
<path d="M305.117 158.56C305.117 158.56 318.277 214.34 325.9 240.34C333.919 267.6 340.273 329.809 340.226 331.868H346.449C346.449 331.868 354.486 281.446 344.569 240.312C343.629 173.572 332.123 158.607 332.123 158.607L305.117 158.56Z" fill="#FFB573"/>
<path d="M340.066 329.64C339.904 329.573 339.725 329.561 339.555 329.605C339.386 329.649 339.235 329.747 339.126 329.884C337.519 331.971 336.353 334.284 331.606 336.314C327.677 337.987 329.848 340.281 335.996 339.444C343.225 338.448 343.328 339.623 345.763 339.623C348.197 339.623 349.344 337.198 347.567 331.924C347.511 331.75 347.407 331.594 347.268 331.475C347.129 331.355 346.959 331.277 346.778 331.247C344.484 330.985 342.23 330.445 340.066 329.64Z" fill="#263238"/>
<path d="M295.576 158.56C295.576 158.56 289.372 199.864 290.246 256.32C309.873 256.208 329.375 253.199 348.122 247.39C348.122 247.39 348.404 174.239 332.076 158.588C322.648 156.05 295.792 157.733 295.576 158.56Z" fill="#263238"/>
<path opacity="0.2" d="M296.3 248.302C296.239 248.302 296.181 248.278 296.137 248.236C296.093 248.194 296.067 248.137 296.065 248.076C294.307 212.027 298.575 161.136 298.612 160.656C298.613 160.625 298.621 160.594 298.635 160.566C298.648 160.538 298.668 160.512 298.691 160.492C298.715 160.472 298.743 160.457 298.773 160.448C298.803 160.439 298.835 160.436 298.866 160.44C298.897 160.442 298.927 160.451 298.955 160.465C298.982 160.479 299.007 160.498 299.027 160.522C299.047 160.546 299.062 160.573 299.072 160.602C299.081 160.632 299.085 160.663 299.082 160.694C299.035 161.211 294.777 212.065 296.535 248.114C296.537 248.145 296.534 248.176 296.523 248.206C296.513 248.236 296.497 248.263 296.476 248.286C296.455 248.309 296.429 248.327 296.4 248.339C296.371 248.352 296.341 248.358 296.309 248.358L296.3 248.302Z" fill="white"/>
<path opacity="0.2" d="M320.862 212.253L326.211 183.921L328.363 190.699L320.862 212.253Z" fill="black"/>
<path d="M359.56 338.244C359.56 338.376 294.286 338.489 213.794 338.489C133.302 338.489 68 338.376 68 338.244C68 338.113 133.264 338 213.794 338C294.324 338 359.56 338.122 359.56 338.244Z" fill="#263238"/>
</g>
<defs>
<clipPath id="clip0_519_704">
<rect width="470" height="359" fill="white" transform="translate(-15)"/>
</clipPath>
</defs>
</svg>
